<?xml version="1.0" standalone="no"?>
<!DOCTYPE svg PUBLIC "-//W3C//DTD SVG 20010904//EN"
 "http://www.w3.org/TR/2001/REC-SVG-20010904/DTD/svg10.dtd">
<svg version="1.0" xmlns="http://www.w3.org/2000/svg"
 width="130" height="43" viewBox="0 0 827.000000 300.000000"
 preserveAspectRatio="xMidYMid meet">
<metadata>
Created by potrace 1.16, written by Peter Selinger 2001-2019
</metadata>
<g transform="translate(0.000000,300.000000) scale(0.100000,-0.100000)"
fill="#000000" stroke="none">
<path d="M5308 2710 c-161 -48 -297 -300 -355 -661 -17 -100 -19 -108 -39
-103 -11 3 -75 8 -141 12 l-121 7 39 65 c21 36 53 101 71 145 28 70 32 92 33
175 0 86 -3 101 -30 155 -65 131 -174 141 -276 27 -80 -88 -162 -276 -204
-464 l-17 -78 -107 0 c-116 0 -154 -12 -159 -48 -7 -44 21 -69 85 -77 32 -4
78 -11 103 -16 l45 -10 0 -222 c0 -180 3 -237 18 -302 37 -157 111 -265 192
-281 85 -16 142 -1 296 78 139 72 148 74 153 54 3 -11 6 -32 6 -46 0 -14 9
-40 20 -58 17 -27 25 -32 59 -32 51 0 63 13 115 124 70 150 212 362 295 441
l32 29 -30 -64 c-16 -36 -39 -98 -51 -138 -44 -144 -9 -308 78 -367 70 -47
184 -29 306 49 l53 34 16 -34 c51 -105 233 -100 420 11 32 19 60 35 62 35 1 0
6 -15 9 -34 10 -54 50 -86 105 -86 39 0 52 5 73 27 14 16 78 132 142 258 100
200 114 224 108 180 -4 -27 -7 -113 -7 -190 0 -151 9 -195 52 -245 21 -26 32
-30 74 -30 59 0 127 22 192 61 l49 30 42 -39 c77 -71 185 -77 279 -16 22 14
41 23 44 20 13 -12 -15 -46 -102 -123 -173 -153 -295 -297 -368 -430 -38 -71
-42 -85 -42 -148 0 -57 4 -76 23 -103 39 -54 74 -67 182 -67 84 0 102 3 153
28 153 76 274 284 333 578 l19 91 55 36 c92 58 213 156 274 222 64 70 63 57
28 209 l-17 74 -44 -59 c-71 -95 -152 -184 -204 -226 -28 -21 -52 -37 -54 -34
-3 2 5 62 16 133 56 346 68 496 42 526 -9 12 -29 17 -67 17 -48 0 -58 4 -91
36 -36 34 -41 35 -88 30 -167 -19 -346 -197 -419 -418 -14 -42 -26 -91 -26
-108 0 -42 -13 -64 -54 -89 -75 -47 -106 -17 -106 104 1 44 7 116 16 160 43
233 43 287 -1 331 -46 46 -150 26 -197 -37 -14 -19 -56 -90 -92 -159 -68 -125
-94 -164 -83 -125 3 11 13 70 22 132 24 169 7 213 -85 213 -34 0 -48 -6 -74
-32 -29 -29 -35 -46 -55 -148 -12 -63 -28 -167 -35 -230 l-15 -115 -53 -48
c-29 -26 -82 -62 -117 -79 l-64 -32 -18 23 c-34 42 -21 140 56 420 25 91 45
175 45 187 0 50 -47 65 -134 43 -85 -21 -90 -31 -150 -269 l-53 -214 -49 -45
c-46 -41 -133 -91 -161 -91 -49 0 -41 136 17 310 53 158 65 272 31 308 -28 28
-87 29 -141 2 -52 -26 -161 -131 -225 -214 -27 -36 -53 -65 -57 -66 -4 0 13
37 38 83 70 127 167 330 218 459 120 301 129 521 23 571 -37 18 -131 22 -179
7z m72 -222 c0 -105 -61 -288 -200 -608 -75 -171 -80 -181 -75 -130 13 113 46
308 70 404 36 147 157 386 196 386 5 0 9 -24 9 -52z m-739 -109 c15 -29 7 -69
-31 -165 -48 -122 -112 -228 -138 -232 -12 -2 -22 1 -22 6 0 21 59 240 79 292
43 113 84 150 112 99z m275 -606 c-3 -27 -9 -115 -13 -198 -6 -143 -7 -150
-32 -173 -69 -64 -230 -155 -298 -168 -44 -8 -98 20 -117 61 -12 26 -16 67
-16 187 0 84 4 167 9 185 5 17 28 55 51 85 l42 53 182 5 c99 3 185 7 190 8 5
1 6 -19 2 -45z m2610 -96 c-3 -12 -19 -89 -36 -171 -39 -185 -80 -275 -137
-297 -31 -11 -51 -2 -68 32 -56 107 55 371 184 439 49 26 65 25 57 -3z m-156
-979 c-55 -182 -151 -308 -233 -308 -77 0 -5 141 155 304 48 50 90 87 94 84 3
-4 -4 -40 -16 -80z"/>
<path d="M1116 2655 c-256 -105 -473 -446 -561 -880 -13 -66 -27 -153 -31
-193 l-7 -74 -51 -37 c-28 -21 -93 -66 -145 -100 l-93 -63 4 -59 c5 -67 34
-109 76 -109 13 0 61 24 107 54 l82 54 7 -56 c13 -110 64 -180 149 -203 90
-24 274 6 504 82 143 47 173 72 173 142 l0 42 29 -60 c33 -70 105 -139 160
-155 54 -15 141 -12 195 6 29 10 70 38 107 71 133 123 186 351 121 520 -11 30
-15 50 -9 46 23 -13 162 -116 183 -134 l20 -19 -23 -71 c-63 -186 -31 -338 84
-406 82 -48 199 -33 276 35 18 16 18 15 11 -13 -4 -16 -21 -40 -38 -54 -17
-14 -84 -77 -150 -141 -204 -199 -313 -357 -323 -469 -7 -75 0 -102 37 -144
38 -44 98 -61 189 -55 230 17 393 237 471 640 l11 58 87 60 c48 32 114 81 147
109 l59 49 43 -37 c49 -44 99 -61 175 -61 152 0 272 103 334 286 24 71 26 89
21 179 -2 55 -12 119 -20 143 -9 23 -13 42 -9 42 14 0 197 -142 248 -192 29
-27 54 -46 57 -41 2 4 8 34 12 66 l7 58 -59 66 c-151 172 -309 250 -488 241
-144 -8 -240 -60 -315 -172 -60 -88 -81 -169 -79 -298 l1 -107 -36 -45 c-32
-38 -134 -126 -147 -126 -3 0 10 93 28 208 18 114 36 259 39 322 8 140 3 150
-80 150 -47 0 -57 4 -90 36 -36 35 -40 36 -89 30 -98 -13 -204 -80 -287 -182
l-41 -51 -57 55 c-67 66 -153 123 -231 154 -46 18 -76 22 -171 22 -108 1 -119
-1 -180 -30 -114 -54 -182 -133 -222 -257 -21 -66 -29 -217 -16 -292 6 -32 5
-36 -3 -19 -12 23 -49 44 -77 44 -9 0 -104 -25 -211 -55 -191 -54 -225 -60
-268 -49 -22 6 -23 12 -23 93 l0 87 73 51 c284 199 522 513 598 788 24 90 29
225 11 291 -39 136 -163 188 -306 129z m66 -192 c14 -13 18 -31 18 -87 -1
-118 -57 -247 -188 -430 -69 -95 -242 -300 -248 -293 -9 9 28 200 58 302 35
120 129 316 192 402 43 59 116 123 139 123 6 0 19 -7 29 -17z m563 -787 c73
-74 50 -318 -41 -425 -29 -33 -42 -41 -71 -41 -87 0 -133 117 -102 262 37 173
143 274 214 204z m799 -133 c-38 -180 -54 -233 -90 -284 -34 -49 -69 -65 -100
-44 -31 20 -38 51 -32 135 7 87 58 199 123 269 42 45 95 80 121 81 7 0 -1 -57
-22 -157z m783 135 c66 -74 56 -271 -21 -402 -30 -52 -51 -66 -96 -66 -47 0
-85 43 -100 114 -39 190 124 456 217 354z m-902 -955 c-56 -194 -155 -333
-238 -333 -55 0 -46 49 29 162 46 68 211 244 221 234 3 -2 -3 -31 -12 -63z"/>
<path d="M6035 2256 c-129 -58 -112 -248 24 -271 93 -16 171 19 203 91 34 79
13 146 -59 183 -29 15 -131 13 -168 -3z"/>
</g>
</svg>
